<?xml version="1.0" encoding="UTF-8"?><svg xmlns="http://www.w3.org/2000/svg" xmlns:xlink="http://www.w3.org/1999/xlink" contentScriptType="text/ecmascript" width="375pt" zoomAndPan="magnify" contentStyleType="text/css" viewBox="0 0 375 374.999991" height="374.999991pt" preserveAspectRatio="xMidYMid meet" version="1.2"><defs><g/></defs><g xml:id="surface1" id="surface1"><g style="fill:rgb(0%,63.529968%,65.879822%);fill-opacity:0.4;"><g transform="translate(8.79032, 209.185621)"><path style="stroke:none;" d="M 18.90625 -43.203125 C 24.007812 -43.203125 27.421875 -42.132812 29.140625 -40 C 30.378906 -38.457031 31 -36.257812 31 -33.40625 C 31 -30.375 30.492188 -27.5625 29.484375 -24.96875 C 28.390625 -22.082031 26.925781 -20.039062 25.09375 -18.84375 C 23.175781 -17.570312 21.359375 -16.800781 19.640625 -16.53125 C 17.421875 -16.15625 14.90625 -15.96875 12.09375 -15.96875 L 10.078125 -1.296875 C 9.921875 -0.316406 9.710938 0.289062 9.453125 0.53125 C 9.191406 0.78125 8.535156 0.90625 7.484375 0.90625 C 4.296875 0.90625 2.816406 0.191406 3.046875 -1.234375 L 8.78125 -42.296875 C 12.644531 -42.898438 16.019531 -43.203125 18.90625 -43.203125 Z M 13.34375 -24.015625 C 13.34375 -23.796875 13.488281 -23.6875 13.78125 -23.6875 L 14.1875 -23.6875 C 15.832031 -23.6875 17.03125 -23.722656 17.78125 -23.796875 C 18.53125 -23.867188 19.296875 -24.101562 20.078125 -24.5 C 20.867188 -24.894531 21.4375 -25.519531 21.78125 -26.375 C 22.445312 -28.0625 22.78125 -29.664062 22.78125 -31.1875 C 22.78125 -32.707031 22.613281 -33.972656 22.28125 -34.984375 C 21.945312 -35.992188 21.441406 -36.5 20.765625 -36.5 C 18.097656 -36.5 16.460938 -36.441406 15.859375 -36.328125 C 15.265625 -36.222656 14.910156 -35.851562 14.796875 -35.21875 L 13.34375 -24.53125 Z M 13.34375 -24.015625 "/></g></g><g style="fill:rgb(0%,63.529968%,65.879822%);fill-opacity:0.4;"><g transform="translate(35.615956, 209.185621)"><path style="stroke:none;" d="M 17.328125 -28.796875 C 19.128906 -28.796875 20.597656 -28.671875 21.734375 -28.421875 C 22.878906 -28.179688 23.882812 -27.742188 24.75 -27.109375 C 25.613281 -26.472656 26.195312 -25.613281 26.5 -24.53125 C 26.875 -23.0625 27.0625 -21.453125 27.0625 -19.703125 C 27.0625 -17.960938 26.890625 -16.082031 26.546875 -14.0625 C 25.765625 -8.4375 24.40625 -4.535156 22.46875 -2.359375 C 20.539062 -0.179688 17.4375 0.90625 13.15625 0.90625 C 8.882812 0.90625 6.113281 -0.179688 4.84375 -2.359375 C 4.007812 -3.671875 3.59375 -5.414062 3.59375 -7.59375 C 3.59375 -9.769531 3.742188 -11.925781 4.046875 -14.0625 C 4.867188 -20.019531 6.191406 -23.960938 8.015625 -25.890625 C 9.835938 -27.828125 12.941406 -28.796875 17.328125 -28.796875 Z M 17.9375 -23.40625 C 15.6875 -23.40625 14.222656 -22.890625 13.546875 -21.859375 C 12.878906 -20.828125 12.3125 -18.59375 11.84375 -15.15625 C 11.375 -11.726562 11.140625 -9.113281 11.140625 -7.3125 C 11.140625 -5.507812 11.476562 -4.609375 12.15625 -4.609375 C 13.382812 -4.609375 14.289062 -4.679688 14.875 -4.828125 C 15.457031 -4.984375 16 -5.414062 16.5 -6.125 C 17.007812 -6.84375 17.375 -7.753906 17.59375 -8.859375 C 17.820312 -9.960938 18.113281 -11.75 18.46875 -14.21875 C 18.832031 -16.695312 19.015625 -18.847656 19.015625 -20.671875 C 19.015625 -22.492188 18.65625 -23.40625 17.9375 -23.40625 Z M 17.9375 -23.40625 "/></g></g><g style="fill:rgb(0%,63.529968%,65.879822%);fill-opacity:0.4;"><g transform="translate(62.272872, 209.185621)"><path style="stroke:none;" d="M 10.0625 0.484375 C 9.988281 0.578125 9.773438 0.671875 9.421875 0.765625 C 9.066406 0.859375 8.519531 0.90625 7.78125 0.90625 C 7.050781 0.90625 6.296875 0.863281 5.515625 0.78125 C 3.523438 0.59375 2.566406 0.332031 2.640625 0 L 8.546875 -42.296875 C 8.617188 -42.898438 9.3125 -43.203125 10.625 -43.203125 C 11.9375 -43.203125 13.015625 -43.113281 13.859375 -42.9375 C 14.703125 -42.769531 15.125 -42.554688 15.125 -42.296875 L 13.609375 -24.25 L 10.234375 0 C 10.191406 0.226562 10.132812 0.390625 10.0625 0.484375 Z M 10.0625 0.484375 "/></g></g><g style="fill:rgb(0%,63.529968%,65.879822%);fill-opacity:0.4;"><g transform="translate(74.757758, 209.185621)"><path style="stroke:none;" d="M 6.640625 -27.90625 C 6.710938 -28.5 7.421875 -28.796875 8.765625 -28.796875 C 10.117188 -28.796875 11.382812 -28.703125 12.5625 -28.515625 C 13.75 -28.328125 14.320312 -28.125 14.28125 -27.90625 L 10.40625 0 C 10.363281 0.226562 10.304688 0.378906 10.234375 0.453125 C 10.003906 0.753906 9.382812 0.90625 8.375 0.90625 C 7.363281 0.90625 6.445312 0.863281 5.625 0.78125 C 3.632812 0.59375 2.675781 0.332031 2.75 0 Z M 12.265625 -43.203125 C 14.617188 -43.203125 15.796875 -42.148438 15.796875 -40.046875 C 15.796875 -39.785156 15.78125 -39.488281 15.75 -39.15625 C 15.375 -36.445312 13.835938 -35.09375 11.140625 -35.09375 C 8.773438 -35.09375 7.59375 -36.144531 7.59375 -38.25 C 7.59375 -38.507812 7.609375 -38.8125 7.640625 -39.15625 C 8.015625 -41.851562 9.554688 -43.203125 12.265625 -43.203125 Z M 12.265625 -43.203125 "/></g></g><g style="fill:rgb(0%,63.529968%,65.879822%);fill-opacity:0.4;"><g transform="translate(87.523836, 209.185621)"><path style="stroke:none;" d="M 5.84375 -21.9375 C 5.4375 -21.9375 5.234375 -22.242188 5.234375 -22.859375 C 5.234375 -23.484375 5.304688 -24.171875 5.453125 -24.921875 C 5.753906 -26.910156 6.164062 -27.90625 6.6875 -27.90625 L 23.34375 -27.90625 L 24.125 -27 L 23.40625 -21.9375 L 11.421875 -6.296875 L 22.109375 -6.296875 C 22.554688 -6.296875 22.78125 -5.863281 22.78125 -5 C 22.78125 -4.738281 22.757812 -4.421875 22.71875 -4.046875 C 22.3125 -1.421875 21.828125 -0.0703125 21.265625 0 L 3.265625 0 L 2.46875 -0.90625 L 3.09375 -5.40625 L 16.3125 -21.9375 Z M 5.84375 -21.9375 "/></g></g><g style="fill:rgb(0%,63.529968%,65.879822%);fill-opacity:0.4;"><g transform="translate(111.143891, 209.185621)"><path style="stroke:none;" d="M 5.84375 -21.9375 C 5.4375 -21.9375 5.234375 -22.242188 5.234375 -22.859375 C 5.234375 -23.484375 5.304688 -24.171875 5.453125 -24.921875 C 5.753906 -26.910156 6.164062 -27.90625 6.6875 -27.90625 L 23.34375 -27.90625 L 24.125 -27 L 23.40625 -21.9375 L 11.421875 -6.296875 L 22.109375 -6.296875 C 22.554688 -6.296875 22.78125 -5.863281 22.78125 -5 C 22.78125 -4.738281 22.757812 -4.421875 22.71875 -4.046875 C 22.3125 -1.421875 21.828125 -0.0703125 21.265625 0 L 3.265625 0 L 2.46875 -0.90625 L 3.09375 -5.40625 L 16.3125 -21.9375 Z M 5.84375 -21.9375 "/></g></g><g style="fill:rgb(0%,63.529968%,65.879822%);fill-opacity:0.4;"><g transform="translate(134.763945, 209.185621)"><path style="stroke:none;" d="M 8.09375 0.90625 C 5.320312 0.90625 3.445312 -0.21875 2.46875 -2.46875 C 1.945312 -3.75 1.6875 -5.425781 1.6875 -7.5 C 1.6875 -9.582031 1.851562 -11.882812 2.1875 -14.40625 C 3.007812 -20.03125 4.375 -23.832031 6.28125 -25.8125 C 8.195312 -27.800781 11.40625 -28.796875 15.90625 -28.796875 L 18.609375 -28.796875 L 19.515625 -28.34375 C 19.585938 -28.945312 20.28125 -29.25 21.59375 -29.25 C 22.90625 -29.25 23.984375 -29.164062 24.828125 -29 C 25.671875 -28.832031 26.09375 -28.613281 26.09375 -28.34375 L 22.15625 0 C 22.113281 0.226562 22.054688 0.378906 21.984375 0.453125 C 21.765625 0.753906 21.222656 0.90625 20.359375 0.90625 C 19.492188 0.90625 18.851562 0.882812 18.4375 0.84375 C 18.03125 0.800781 17.65625 0.753906 17.3125 0.703125 C 16.976562 0.648438 16.679688 0.601562 16.421875 0.5625 C 15.859375 0.414062 15.613281 0.226562 15.6875 0 L 14.84375 -1.75 C 13.675781 -1.03125 12.832031 -0.519531 12.3125 -0.21875 C 10.957031 0.53125 9.550781 0.90625 8.09375 0.90625 Z M 15.1875 -23.40625 C 13.789062 -23.40625 12.765625 -22.832031 12.109375 -21.6875 C 11.453125 -20.539062 10.878906 -18.242188 10.390625 -14.796875 C 9.910156 -11.347656 9.625 -9.109375 9.53125 -8.078125 C 9.4375 -7.046875 9.390625 -6.191406 9.390625 -5.515625 C 9.390625 -4.835938 9.539062 -4.5 9.84375 -4.5 C 11.1875 -4.5 13.078125 -5.175781 15.515625 -6.53125 L 17.875 -23.40625 Z M 15.1875 -23.40625 "/></g></g><g style="fill:rgb(0%,63.529968%,65.879822%);fill-opacity:0.4;"><g transform="translate(159.227578, 209.185621)"><path style="stroke:none;" d="M 21.375 -17.328125 L 5.84375 -17.328125 L 5.0625 -18.21875 L 5.90625 -24.296875 L 21.4375 -24.296875 L 22.21875 -23.40625 Z M 21.375 -17.328125 "/></g></g><g style="fill:rgb(0%,63.529968%,65.879822%);fill-opacity:0.4;"><g transform="translate(180.766822, 209.185621)"><path style="stroke:none;" d="M 8.09375 0.90625 C 5.320312 0.90625 3.445312 -0.21875 2.46875 -2.46875 C 1.945312 -3.75 1.6875 -5.425781 1.6875 -7.5 C 1.6875 -9.582031 1.851562 -11.882812 2.1875 -14.40625 C 3.007812 -20.03125 4.375 -23.832031 6.28125 -25.8125 C 8.195312 -27.800781 11.40625 -28.796875 15.90625 -28.796875 L 18.609375 -28.796875 L 19.515625 -28.34375 C 19.585938 -28.945312 20.28125 -29.25 21.59375 -29.25 C 22.90625 -29.25 23.984375 -29.164062 24.828125 -29 C 25.671875 -28.832031 26.09375 -28.613281 26.09375 -28.34375 L 22.15625 0 C 22.113281 0.226562 22.054688 0.378906 21.984375 0.453125 C 21.765625 0.753906 21.222656 0.90625 20.359375 0.90625 C 19.492188 0.90625 18.851562 0.882812 18.4375 0.84375 C 18.03125 0.800781 17.65625 0.753906 17.3125 0.703125 C 16.976562 0.648438 16.679688 0.601562 16.421875 0.5625 C 15.859375 0.414062 15.613281 0.226562 15.6875 0 L 14.84375 -1.75 C 13.675781 -1.03125 12.832031 -0.519531 12.3125 -0.21875 C 10.957031 0.53125 9.550781 0.90625 8.09375 0.90625 Z M 15.1875 -23.40625 C 13.789062 -23.40625 12.765625 -22.832031 12.109375 -21.6875 C 11.453125 -20.539062 10.878906 -18.242188 10.390625 -14.796875 C 9.910156 -11.347656 9.625 -9.109375 9.53125 -8.078125 C 9.4375 -7.046875 9.390625 -6.191406 9.390625 -5.515625 C 9.390625 -4.835938 9.539062 -4.5 9.84375 -4.5 C 11.1875 -4.5 13.078125 -5.175781 15.515625 -6.53125 L 17.875 -23.40625 Z M 15.1875 -23.40625 "/></g></g><g style="fill:rgb(0%,63.529968%,65.879822%);fill-opacity:0.4;"><g transform="translate(205.230454, 209.185621)"><path style="stroke:none;" d="M 10.234375 0.90625 C 7.460938 0.90625 5.550781 0.0390625 4.5 -1.6875 C 3.820312 -2.769531 3.484375 -4.164062 3.484375 -5.875 C 3.484375 -7.582031 3.597656 -9.222656 3.828125 -10.796875 L 6.25 -27.90625 C 6.320312 -28.5 7.039062 -28.796875 8.40625 -28.796875 C 9.78125 -28.796875 11.113281 -28.703125 12.40625 -28.515625 C 13.695312 -28.328125 14.320312 -28.125 14.28125 -27.90625 L 11.921875 -10.796875 C 11.660156 -8.773438 11.53125 -7.21875 11.53125 -6.125 C 11.53125 -5.039062 11.679688 -4.5 11.984375 -4.5 C 13.328125 -4.5 15.21875 -5.175781 17.65625 -6.53125 L 20.640625 -27.90625 C 20.710938 -28.5 21.429688 -28.796875 22.796875 -28.796875 C 24.171875 -28.796875 25.515625 -28.703125 26.828125 -28.515625 C 28.140625 -28.328125 28.78125 -28.125 28.75 -27.90625 L 24.859375 0 C 24.828125 0.226562 24.769531 0.378906 24.6875 0.453125 C 24.46875 0.753906 23.457031 0.90625 21.65625 0.90625 C 19.851562 0.90625 18.820312 0.601562 18.5625 0 L 18.5 -0.0625 L 17.609375 -1.75 C 14.753906 0.0195312 12.296875 0.90625 10.234375 0.90625 Z M 10.234375 0.90625 "/></g></g><g style="fill:rgb(0%,63.529968%,65.879822%);fill-opacity:0.4;"><g transform="translate(232.618476, 209.185621)"><path style="stroke:none;" d="M 4 -23.40625 C 3.507812 -23.40625 3.265625 -23.550781 3.265625 -23.84375 L 3.265625 -24.40625 C 3.484375 -25.988281 3.894531 -26.851562 4.5 -27 L 9.109375 -27.90625 L 13.15625 -34.25 C 13.644531 -34.8125 14.546875 -35.09375 15.859375 -35.09375 C 16.304688 -35.09375 16.554688 -34.285156 16.609375 -32.671875 C 16.671875 -31.066406 16.722656 -29.476562 16.765625 -27.90625 L 22.15625 -27.90625 C 22.613281 -27.90625 22.84375 -27.472656 22.84375 -26.609375 C 22.84375 -26.347656 22.820312 -26.03125 22.78125 -25.65625 C 22.550781 -24.15625 22.140625 -23.40625 21.546875 -23.40625 L 16.09375 -23.40625 L 13.5625 -5.515625 L 13.5625 0.90625 C 13.5625 1.09375 13.519531 1.238281 13.4375 1.34375 C 13.25 1.644531 12.300781 1.796875 10.59375 1.796875 C 8.894531 1.796875 7.953125 1.5 7.765625 0.90625 L 7.765625 0.78125 L 5.84375 -4.5625 L 8.5 -23.40625 Z M 4 -23.40625 "/></g></g><g style="fill:rgb(0%,63.529968%,65.879822%);fill-opacity:0.4;"><g transform="translate(251.570761, 209.185621)"><path style="stroke:none;" d="M 17.328125 -28.796875 C 19.128906 -28.796875 20.597656 -28.671875 21.734375 -28.421875 C 22.878906 -28.179688 23.882812 -27.742188 24.75 -27.109375 C 25.613281 -26.472656 26.195312 -25.613281 26.5 -24.53125 C 26.875 -23.0625 27.0625 -21.453125 27.0625 -19.703125 C 27.0625 -17.960938 26.890625 -16.082031 26.546875 -14.0625 C 25.765625 -8.4375 24.40625 -4.535156 22.46875 -2.359375 C 20.539062 -0.179688 17.4375 0.90625 13.15625 0.90625 C 8.882812 0.90625 6.113281 -0.179688 4.84375 -2.359375 C 4.007812 -3.671875 3.59375 -5.414062 3.59375 -7.59375 C 3.59375 -9.769531 3.742188 -11.925781 4.046875 -14.0625 C 4.867188 -20.019531 6.191406 -23.960938 8.015625 -25.890625 C 9.835938 -27.828125 12.941406 -28.796875 17.328125 -28.796875 Z M 17.9375 -23.40625 C 15.6875 -23.40625 14.222656 -22.890625 13.546875 -21.859375 C 12.878906 -20.828125 12.3125 -18.59375 11.84375 -15.15625 C 11.375 -11.726562 11.140625 -9.113281 11.140625 -7.3125 C 11.140625 -5.507812 11.476562 -4.609375 12.15625 -4.609375 C 13.382812 -4.609375 14.289062 -4.679688 14.875 -4.828125 C 15.457031 -4.984375 16 -5.414062 16.5 -6.125 C 17.007812 -6.84375 17.375 -7.753906 17.59375 -8.859375 C 17.820312 -9.960938 18.113281 -11.75 18.46875 -14.21875 C 18.832031 -16.695312 19.015625 -18.847656 19.015625 -20.671875 C 19.015625 -22.492188 18.65625 -23.40625 17.9375 -23.40625 Z M 17.9375 -23.40625 "/></g></g><g style="fill:rgb(0%,63.529968%,65.879822%);fill-opacity:0.4;"><g transform="translate(278.227665, 209.185621)"><path style="stroke:none;" d="M 6.90625 -7.203125 C 9.269531 -7.203125 10.453125 -6.148438 10.453125 -4.046875 C 10.453125 -3.785156 10.4375 -3.488281 10.40625 -3.15625 C 10.0625 -0.445312 8.519531 0.90625 5.78125 0.90625 C 3.425781 0.90625 2.25 -0.164062 2.25 -2.3125 C 2.25 -2.570312 2.265625 -2.851562 2.296875 -3.15625 C 2.671875 -5.851562 4.207031 -7.203125 6.90625 -7.203125 Z M 6.90625 -7.203125 "/></g></g><g style="fill:rgb(0%,63.529968%,65.879822%);fill-opacity:0.4;"><g transform="translate(290.262638, 209.185621)"><path style="stroke:none;" d="M 21.09375 -28.796875 C 23.863281 -28.796875 25.796875 -27.9375 26.890625 -26.21875 C 27.523438 -25.125 27.84375 -23.734375 27.84375 -22.046875 C 27.84375 -20.359375 27.726562 -18.707031 27.5 -17.09375 L 25.140625 0 C 25.097656 0.226562 25.039062 0.378906 24.96875 0.453125 C 24.75 0.753906 24.125 0.90625 23.09375 0.90625 C 22.0625 0.90625 21.113281 0.863281 20.25 0.78125 C 18.070312 0.59375 17.019531 0.332031 17.09375 0 L 19.40625 -17.09375 C 19.738281 -19.195312 19.90625 -20.773438 19.90625 -21.828125 C 19.90625 -22.878906 19.738281 -23.40625 19.40625 -23.40625 C 18.050781 -23.40625 16.15625 -22.726562 13.71875 -21.375 L 10.734375 0 C 10.703125 0.226562 10.648438 0.378906 10.578125 0.453125 C 10.347656 0.753906 9.71875 0.90625 8.6875 0.90625 C 7.65625 0.90625 6.707031 0.863281 5.84375 0.78125 C 3.632812 0.59375 2.566406 0.332031 2.640625 0 L 6.515625 -27.90625 C 6.597656 -28.5 7.601562 -28.796875 9.53125 -28.796875 C 11.457031 -28.796875 12.554688 -28.5 12.828125 -27.90625 C 12.828125 -27.820312 12.84375 -27.78125 12.875 -27.78125 L 13.671875 -25.65625 C 17.078125 -27.75 19.550781 -28.796875 21.09375 -28.796875 Z M 21.09375 -28.796875 "/></g></g><g style="fill:rgb(0%,63.529968%,65.879822%);fill-opacity:0.4;"><g transform="translate(317.706896, 209.185621)"><path style="stroke:none;" d="M 12.53125 0.90625 C 8.519531 0.90625 5.894531 -0.179688 4.65625 -2.359375 C 3.90625 -3.671875 3.53125 -5.40625 3.53125 -7.5625 C 3.53125 -9.71875 3.679688 -11.882812 3.984375 -14.0625 C 4.804688 -19.988281 6.097656 -23.925781 7.859375 -25.875 C 9.628906 -27.820312 12.390625 -28.796875 16.140625 -28.796875 C 19.890625 -28.796875 22.425781 -28.175781 23.75 -26.9375 C 25.082031 -25.707031 25.75 -23.3125 25.75 -19.75 C 25.75 -17.382812 25.28125 -15.640625 24.34375 -14.515625 C 23.21875 -13.203125 19.054688 -12.546875 11.859375 -12.546875 C 11.554688 -9.992188 11.40625 -8.296875 11.40625 -7.453125 C 11.40625 -6.609375 11.425781 -6.070312 11.46875 -5.84375 C 11.65625 -5.019531 12.273438 -4.609375 13.328125 -4.609375 C 18.160156 -4.609375 21.550781 -4.851562 23.5 -5.34375 C 23.539062 -5.34375 23.625 -5.359375 23.75 -5.390625 C 23.882812 -5.429688 24.007812 -5.394531 24.125 -5.28125 C 24.425781 -4.945312 24.460938 -4.238281 24.234375 -3.15625 C 24.046875 -1.195312 23.613281 -0.144531 22.9375 0 C 21.289062 0.601562 17.820312 0.90625 12.53125 0.90625 Z M 18.390625 -20.03125 C 18.390625 -22.382812 18.179688 -23.5625 17.765625 -23.5625 C 16.492188 -23.5625 15.414062 -23.375 14.53125 -23 C 13.65625 -22.625 13.175781 -22.101562 13.09375 -21.4375 L 12.484375 -17.046875 C 15.066406 -17.046875 16.695312 -17.222656 17.375 -17.578125 C 18.050781 -17.929688 18.390625 -18.75 18.390625 -20.03125 Z M 18.390625 -20.03125 "/></g></g><g style="fill:rgb(0%,63.529968%,65.879822%);fill-opacity:0.4;"><g transform="translate(343.239052, 209.185621)"><path style="stroke:none;" d="M 4 -23.40625 C 3.507812 -23.40625 3.265625 -23.550781 3.265625 -23.84375 L 3.265625 -24.40625 C 3.484375 -25.988281 3.894531 -26.851562 4.5 -27 L 9.109375 -27.90625 L 13.15625 -34.25 C 13.644531 -34.8125 14.546875 -35.09375 15.859375 -35.09375 C 16.304688 -35.09375 16.554688 -34.285156 16.609375 -32.671875 C 16.671875 -31.066406 16.722656 -29.476562 16.765625 -27.90625 L 22.15625 -27.90625 C 22.613281 -27.90625 22.84375 -27.472656 22.84375 -26.609375 C 22.84375 -26.347656 22.820312 -26.03125 22.78125 -25.65625 C 22.550781 -24.15625 22.140625 -23.40625 21.546875 -23.40625 L 16.09375 -23.40625 L 13.5625 -5.515625 L 13.5625 0.90625 C 13.5625 1.09375 13.519531 1.238281 13.4375 1.34375 C 13.25 1.644531 12.300781 1.796875 10.59375 1.796875 C 8.894531 1.796875 7.953125 1.5 7.765625 0.90625 L 7.765625 0.78125 L 5.84375 -4.5625 L 8.5 -23.40625 Z M 4 -23.40625 "/></g></g><g style="fill:rgb(0%,63.529968%,65.879822%);fill-opacity:1;"><g transform="translate(6.304692, 206.699986)"><path style="stroke:none;" d="M 18.90625 -43.203125 C 24.007812 -43.203125 27.421875 -42.132812 29.140625 -40 C 30.378906 -38.457031 31 -36.257812 31 -33.40625 C 31 -30.375 30.492188 -27.5625 29.484375 -24.96875 C 28.390625 -22.082031 26.925781 -20.039062 25.09375 -18.84375 C 23.175781 -17.570312 21.359375 -16.800781 19.640625 -16.53125 C 17.421875 -16.15625 14.90625 -15.96875 12.09375 -15.96875 L 10.078125 -1.296875 C 9.921875 -0.316406 9.710938 0.289062 9.453125 0.53125 C 9.191406 0.78125 8.535156 0.90625 7.484375 0.90625 C 4.296875 0.90625 2.816406 0.191406 3.046875 -1.234375 L 8.78125 -42.296875 C 12.644531 -42.898438 16.019531 -43.203125 18.90625 -43.203125 Z M 13.34375 -24.015625 C 13.34375 -23.796875 13.488281 -23.6875 13.78125 -23.6875 L 14.1875 -23.6875 C 15.832031 -23.6875 17.03125 -23.722656 17.78125 -23.796875 C 18.53125 -23.867188 19.296875 -24.101562 20.078125 -24.5 C 20.867188 -24.894531 21.4375 -25.519531 21.78125 -26.375 C 22.445312 -28.0625 22.78125 -29.664062 22.78125 -31.1875 C 22.78125 -32.707031 22.613281 -33.972656 22.28125 -34.984375 C 21.945312 -35.992188 21.441406 -36.5 20.765625 -36.5 C 18.097656 -36.5 16.460938 -36.441406 15.859375 -36.328125 C 15.265625 -36.222656 14.910156 -35.851562 14.796875 -35.21875 L 13.34375 -24.53125 Z M 13.34375 -24.015625 "/></g></g><g style="fill:rgb(0%,63.529968%,65.879822%);fill-opacity:1;"><g transform="translate(33.130328, 206.699986)"><path style="stroke:none;" d="M 17.328125 -28.796875 C 19.128906 -28.796875 20.597656 -28.671875 21.734375 -28.421875 C 22.878906 -28.179688 23.882812 -27.742188 24.75 -27.109375 C 25.613281 -26.472656 26.195312 -25.613281 26.5 -24.53125 C 26.875 -23.0625 27.0625 -21.453125 27.0625 -19.703125 C 27.0625 -17.960938 26.890625 -16.082031 26.546875 -14.0625 C 25.765625 -8.4375 24.40625 -4.535156 22.46875 -2.359375 C 20.539062 -0.179688 17.4375 0.90625 13.15625 0.90625 C 8.882812 0.90625 6.113281 -0.179688 4.84375 -2.359375 C 4.007812 -3.671875 3.59375 -5.414062 3.59375 -7.59375 C 3.59375 -9.769531 3.742188 -11.925781 4.046875 -14.0625 C 4.867188 -20.019531 6.191406 -23.960938 8.015625 -25.890625 C 9.835938 -27.828125 12.941406 -28.796875 17.328125 -28.796875 Z M 17.9375 -23.40625 C 15.6875 -23.40625 14.222656 -22.890625 13.546875 -21.859375 C 12.878906 -20.828125 12.3125 -18.59375 11.84375 -15.15625 C 11.375 -11.726562 11.140625 -9.113281 11.140625 -7.3125 C 11.140625 -5.507812 11.476562 -4.609375 12.15625 -4.609375 C 13.382812 -4.609375 14.289062 -4.679688 14.875 -4.828125 C 15.457031 -4.984375 16 -5.414062 16.5 -6.125 C 17.007812 -6.84375 17.375 -7.753906 17.59375 -8.859375 C 17.820312 -9.960938 18.113281 -11.75 18.46875 -14.21875 C 18.832031 -16.695312 19.015625 -18.847656 19.015625 -20.671875 C 19.015625 -22.492188 18.65625 -23.40625 17.9375 -23.40625 Z M 17.9375 -23.40625 "/></g></g><g style="fill:rgb(0%,63.529968%,65.879822%);fill-opacity:1;"><g transform="translate(59.787244, 206.699986)"><path style="stroke:none;" d="M 10.0625 0.484375 C 9.988281 0.578125 9.773438 0.671875 9.421875 0.765625 C 9.066406 0.859375 8.519531 0.90625 7.78125 0.90625 C 7.050781 0.90625 6.296875 0.863281 5.515625 0.78125 C 3.523438 0.59375 2.566406 0.332031 2.640625 0 L 8.546875 -42.296875 C 8.617188 -42.898438 9.3125 -43.203125 10.625 -43.203125 C 11.9375 -43.203125 13.015625 -43.113281 13.859375 -42.9375 C 14.703125 -42.769531 15.125 -42.554688 15.125 -42.296875 L 13.609375 -24.25 L 10.234375 0 C 10.191406 0.226562 10.132812 0.390625 10.0625 0.484375 Z M 10.0625 0.484375 "/></g></g><g style="fill:rgb(0%,63.529968%,65.879822%);fill-opacity:1;"><g transform="translate(72.272129, 206.699986)"><path style="stroke:none;" d="M 6.640625 -27.90625 C 6.710938 -28.5 7.421875 -28.796875 8.765625 -28.796875 C 10.117188 -28.796875 11.382812 -28.703125 12.5625 -28.515625 C 13.75 -28.328125 14.320312 -28.125 14.28125 -27.90625 L 10.40625 0 C 10.363281 0.226562 10.304688 0.378906 10.234375 0.453125 C 10.003906 0.753906 9.382812 0.90625 8.375 0.90625 C 7.363281 0.90625 6.445312 0.863281 5.625 0.78125 C 3.632812 0.59375 2.675781 0.332031 2.75 0 Z M 12.265625 -43.203125 C 14.617188 -43.203125 15.796875 -42.148438 15.796875 -40.046875 C 15.796875 -39.785156 15.78125 -39.488281 15.75 -39.15625 C 15.375 -36.445312 13.835938 -35.09375 11.140625 -35.09375 C 8.773438 -35.09375 7.59375 -36.144531 7.59375 -38.25 C 7.59375 -38.507812 7.609375 -38.8125 7.640625 -39.15625 C 8.015625 -41.851562 9.554688 -43.203125 12.265625 -43.203125 Z M 12.265625 -43.203125 "/></g></g><g style="fill:rgb(0%,63.529968%,65.879822%);fill-opacity:1;"><g transform="translate(85.038207, 206.699986)"><path style="stroke:none;" d="M 5.84375 -21.9375 C 5.4375 -21.9375 5.234375 -22.242188 5.234375 -22.859375 C 5.234375 -23.484375 5.304688 -24.171875 5.453125 -24.921875 C 5.753906 -26.910156 6.164062 -27.90625 6.6875 -27.90625 L 23.34375 -27.90625 L 24.125 -27 L 23.40625 -21.9375 L 11.421875 -6.296875 L 22.109375 -6.296875 C 22.554688 -6.296875 22.78125 -5.863281 22.78125 -5 C 22.78125 -4.738281 22.757812 -4.421875 22.71875 -4.046875 C 22.3125 -1.421875 21.828125 -0.0703125 21.265625 0 L 3.265625 0 L 2.46875 -0.90625 L 3.09375 -5.40625 L 16.3125 -21.9375 Z M 5.84375 -21.9375 "/></g></g><g style="fill:rgb(0%,63.529968%,65.879822%);fill-opacity:1;"><g transform="translate(108.658262, 206.699986)"><path style="stroke:none;" d="M 5.84375 -21.9375 C 5.4375 -21.9375 5.234375 -22.242188 5.234375 -22.859375 C 5.234375 -23.484375 5.304688 -24.171875 5.453125 -24.921875 C 5.753906 -26.910156 6.164062 -27.90625 6.6875 -27.90625 L 23.34375 -27.90625 L 24.125 -27 L 23.40625 -21.9375 L 11.421875 -6.296875 L 22.109375 -6.296875 C 22.554688 -6.296875 22.78125 -5.863281 22.78125 -5 C 22.78125 -4.738281 22.757812 -4.421875 22.71875 -4.046875 C 22.3125 -1.421875 21.828125 -0.0703125 21.265625 0 L 3.265625 0 L 2.46875 -0.90625 L 3.09375 -5.40625 L 16.3125 -21.9375 Z M 5.84375 -21.9375 "/></g></g><g style="fill:rgb(0%,63.529968%,65.879822%);fill-opacity:1;"><g transform="translate(132.278316, 206.699986)"><path style="stroke:none;" d="M 8.09375 0.90625 C 5.320312 0.90625 3.445312 -0.21875 2.46875 -2.46875 C 1.945312 -3.75 1.6875 -5.425781 1.6875 -7.5 C 1.6875 -9.582031 1.851562 -11.882812 2.1875 -14.40625 C 3.007812 -20.03125 4.375 -23.832031 6.28125 -25.8125 C 8.195312 -27.800781 11.40625 -28.796875 15.90625 -28.796875 L 18.609375 -28.796875 L 19.515625 -28.34375 C 19.585938 -28.945312 20.28125 -29.25 21.59375 -29.25 C 22.90625 -29.25 23.984375 -29.164062 24.828125 -29 C 25.671875 -28.832031 26.09375 -28.613281 26.09375 -28.34375 L 22.15625 0 C 22.113281 0.226562 22.054688 0.378906 21.984375 0.453125 C 21.765625 0.753906 21.222656 0.90625 20.359375 0.90625 C 19.492188 0.90625 18.851562 0.882812 18.4375 0.84375 C 18.03125 0.800781 17.65625 0.753906 17.3125 0.703125 C 16.976562 0.648438 16.679688 0.601562 16.421875 0.5625 C 15.859375 0.414062 15.613281 0.226562 15.6875 0 L 14.84375 -1.75 C 13.675781 -1.03125 12.832031 -0.519531 12.3125 -0.21875 C 10.957031 0.53125 9.550781 0.90625 8.09375 0.90625 Z M 15.1875 -23.40625 C 13.789062 -23.40625 12.765625 -22.832031 12.109375 -21.6875 C 11.453125 -20.539062 10.878906 -18.242188 10.390625 -14.796875 C 9.910156 -11.347656 9.625 -9.109375 9.53125 -8.078125 C 9.4375 -7.046875 9.390625 -6.191406 9.390625 -5.515625 C 9.390625 -4.835938 9.539062 -4.5 9.84375 -4.5 C 11.1875 -4.5 13.078125 -5.175781 15.515625 -6.53125 L 17.875 -23.40625 Z M 15.1875 -23.40625 "/></g></g><g style="fill:rgb(0%,63.529968%,65.879822%);fill-opacity:1;"><g transform="translate(156.741949, 206.699986)"><path style="stroke:none;" d="M 21.375 -17.328125 L 5.84375 -17.328125 L 5.0625 -18.21875 L 5.90625 -24.296875 L 21.4375 -24.296875 L 22.21875 -23.40625 Z M 21.375 -17.328125 "/></g></g><g style="fill:rgb(0%,63.529968%,65.879822%);fill-opacity:1;"><g transform="translate(178.281193, 206.699986)"><path style="stroke:none;" d="M 8.09375 0.90625 C 5.320312 0.90625 3.445312 -0.21875 2.46875 -2.46875 C 1.945312 -3.75 1.6875 -5.425781 1.6875 -7.5 C 1.6875 -9.582031 1.851562 -11.882812 2.1875 -14.40625 C 3.007812 -20.03125 4.375 -23.832031 6.28125 -25.8125 C 8.195312 -27.800781 11.40625 -28.796875 15.90625 -28.796875 L 18.609375 -28.796875 L 19.515625 -28.34375 C 19.585938 -28.945312 20.28125 -29.25 21.59375 -29.25 C 22.90625 -29.25 23.984375 -29.164062 24.828125 -29 C 25.671875 -28.832031 26.09375 -28.613281 26.09375 -28.34375 L 22.15625 0 C 22.113281 0.226562 22.054688 0.378906 21.984375 0.453125 C 21.765625 0.753906 21.222656 0.90625 20.359375 0.90625 C 19.492188 0.90625 18.851562 0.882812 18.4375 0.84375 C 18.03125 0.800781 17.65625 0.753906 17.3125 0.703125 C 16.976562 0.648438 16.679688 0.601562 16.421875 0.5625 C 15.859375 0.414062 15.613281 0.226562 15.6875 0 L 14.84375 -1.75 C 13.675781 -1.03125 12.832031 -0.519531 12.3125 -0.21875 C 10.957031 0.53125 9.550781 0.90625 8.09375 0.90625 Z M 15.1875 -23.40625 C 13.789062 -23.40625 12.765625 -22.832031 12.109375 -21.6875 C 11.453125 -20.539062 10.878906 -18.242188 10.390625 -14.796875 C 9.910156 -11.347656 9.625 -9.109375 9.53125 -8.078125 C 9.4375 -7.046875 9.390625 -6.191406 9.390625 -5.515625 C 9.390625 -4.835938 9.539062 -4.5 9.84375 -4.5 C 11.1875 -4.5 13.078125 -5.175781 15.515625 -6.53125 L 17.875 -23.40625 Z M 15.1875 -23.40625 "/></g></g><g style="fill:rgb(0%,63.529968%,65.879822%);fill-opacity:1;"><g transform="translate(202.744826, 206.699986)"><path style="stroke:none;" d="M 10.234375 0.90625 C 7.460938 0.90625 5.550781 0.0390625 4.5 -1.6875 C 3.820312 -2.769531 3.484375 -4.164062 3.484375 -5.875 C 3.484375 -7.582031 3.597656 -9.222656 3.828125 -10.796875 L 6.25 -27.90625 C 6.320312 -28.5 7.039062 -28.796875 8.40625 -28.796875 C 9.78125 -28.796875 11.113281 -28.703125 12.40625 -28.515625 C 13.695312 -28.328125 14.320312 -28.125 14.28125 -27.90625 L 11.921875 -10.796875 C 11.660156 -8.773438 11.53125 -7.21875 11.53125 -6.125 C 11.53125 -5.039062 11.679688 -4.5 11.984375 -4.5 C 13.328125 -4.5 15.21875 -5.175781 17.65625 -6.53125 L 20.640625 -27.90625 C 20.710938 -28.5 21.429688 -28.796875 22.796875 -28.796875 C 24.171875 -28.796875 25.515625 -28.703125 26.828125 -28.515625 C 28.140625 -28.328125 28.78125 -28.125 28.75 -27.90625 L 24.859375 0 C 24.828125 0.226562 24.769531 0.378906 24.6875 0.453125 C 24.46875 0.753906 23.457031 0.90625 21.65625 0.90625 C 19.851562 0.90625 18.820312 0.601562 18.5625 0 L 18.5 -0.0625 L 17.609375 -1.75 C 14.753906 0.0195312 12.296875 0.90625 10.234375 0.90625 Z M 10.234375 0.90625 "/></g></g><g style="fill:rgb(0%,63.529968%,65.879822%);fill-opacity:1;"><g transform="translate(230.132848, 206.699986)"><path style="stroke:none;" d="M 4 -23.40625 C 3.507812 -23.40625 3.265625 -23.550781 3.265625 -23.84375 L 3.265625 -24.40625 C 3.484375 -25.988281 3.894531 -26.851562 4.5 -27 L 9.109375 -27.90625 L 13.15625 -34.25 C 13.644531 -34.8125 14.546875 -35.09375 15.859375 -35.09375 C 16.304688 -35.09375 16.554688 -34.285156 16.609375 -32.671875 C 16.671875 -31.066406 16.722656 -29.476562 16.765625 -27.90625 L 22.15625 -27.90625 C 22.613281 -27.90625 22.84375 -27.472656 22.84375 -26.609375 C 22.84375 -26.347656 22.820312 -26.03125 22.78125 -25.65625 C 22.550781 -24.15625 22.140625 -23.40625 21.546875 -23.40625 L 16.09375 -23.40625 L 13.5625 -5.515625 L 13.5625 0.90625 C 13.5625 1.09375 13.519531 1.238281 13.4375 1.34375 C 13.25 1.644531 12.300781 1.796875 10.59375 1.796875 C 8.894531 1.796875 7.953125 1.5 7.765625 0.90625 L 7.765625 0.78125 L 5.84375 -4.5625 L 8.5 -23.40625 Z M 4 -23.40625 "/></g></g><g style="fill:rgb(0%,63.529968%,65.879822%);fill-opacity:1;"><g transform="translate(249.085132, 206.699986)"><path style="stroke:none;" d="M 17.328125 -28.796875 C 19.128906 -28.796875 20.597656 -28.671875 21.734375 -28.421875 C 22.878906 -28.179688 23.882812 -27.742188 24.75 -27.109375 C 25.613281 -26.472656 26.195312 -25.613281 26.5 -24.53125 C 26.875 -23.0625 27.0625 -21.453125 27.0625 -19.703125 C 27.0625 -17.960938 26.890625 -16.082031 26.546875 -14.0625 C 25.765625 -8.4375 24.40625 -4.535156 22.46875 -2.359375 C 20.539062 -0.179688 17.4375 0.90625 13.15625 0.90625 C 8.882812 0.90625 6.113281 -0.179688 4.84375 -2.359375 C 4.007812 -3.671875 3.59375 -5.414062 3.59375 -7.59375 C 3.59375 -9.769531 3.742188 -11.925781 4.046875 -14.0625 C 4.867188 -20.019531 6.191406 -23.960938 8.015625 -25.890625 C 9.835938 -27.828125 12.941406 -28.796875 17.328125 -28.796875 Z M 17.9375 -23.40625 C 15.6875 -23.40625 14.222656 -22.890625 13.546875 -21.859375 C 12.878906 -20.828125 12.3125 -18.59375 11.84375 -15.15625 C 11.375 -11.726562 11.140625 -9.113281 11.140625 -7.3125 C 11.140625 -5.507812 11.476562 -4.609375 12.15625 -4.609375 C 13.382812 -4.609375 14.289062 -4.679688 14.875 -4.828125 C 15.457031 -4.984375 16 -5.414062 16.5 -6.125 C 17.007812 -6.84375 17.375 -7.753906 17.59375 -8.859375 C 17.820312 -9.960938 18.113281 -11.75 18.46875 -14.21875 C 18.832031 -16.695312 19.015625 -18.847656 19.015625 -20.671875 C 19.015625 -22.492188 18.65625 -23.40625 17.9375 -23.40625 Z M 17.9375 -23.40625 "/></g></g><g style="fill:rgb(0%,63.529968%,65.879822%);fill-opacity:1;"><g transform="translate(275.742037, 206.699986)"><path style="stroke:none;" d="M 6.90625 -7.203125 C 9.269531 -7.203125 10.453125 -6.148438 10.453125 -4.046875 C 10.453125 -3.785156 10.4375 -3.488281 10.40625 -3.15625 C 10.0625 -0.445312 8.519531 0.90625 5.78125 0.90625 C 3.425781 0.90625 2.25 -0.164062 2.25 -2.3125 C 2.25 -2.570312 2.265625 -2.851562 2.296875 -3.15625 C 2.671875 -5.851562 4.207031 -7.203125 6.90625 -7.203125 Z M 6.90625 -7.203125 "/></g></g><g style="fill:rgb(0%,63.529968%,65.879822%);fill-opacity:1;"><g transform="translate(287.777009, 206.699986)"><path style="stroke:none;" d="M 21.09375 -28.796875 C 23.863281 -28.796875 25.796875 -27.9375 26.890625 -26.21875 C 27.523438 -25.125 27.84375 -23.734375 27.84375 -22.046875 C 27.84375 -20.359375 27.726562 -18.707031 27.5 -17.09375 L 25.140625 0 C 25.097656 0.226562 25.039062 0.378906 24.96875 0.453125 C 24.75 0.753906 24.125 0.90625 23.09375 0.90625 C 22.0625 0.90625 21.113281 0.863281 20.25 0.78125 C 18.070312 0.59375 17.019531 0.332031 17.09375 0 L 19.40625 -17.09375 C 19.738281 -19.195312 19.90625 -20.773438 19.90625 -21.828125 C 19.90625 -22.878906 19.738281 -23.40625 19.40625 -23.40625 C 18.050781 -23.40625 16.15625 -22.726562 13.71875 -21.375 L 10.734375 0 C 10.703125 0.226562 10.648438 0.378906 10.578125 0.453125 C 10.347656 0.753906 9.71875 0.90625 8.6875 0.90625 C 7.65625 0.90625 6.707031 0.863281 5.84375 0.78125 C 3.632812 0.59375 2.566406 0.332031 2.640625 0 L 6.515625 -27.90625 C 6.597656 -28.5 7.601562 -28.796875 9.53125 -28.796875 C 11.457031 -28.796875 12.554688 -28.5 12.828125 -27.90625 C 12.828125 -27.820312 12.84375 -27.78125 12.875 -27.78125 L 13.671875 -25.65625 C 17.078125 -27.75 19.550781 -28.796875 21.09375 -28.796875 Z M 21.09375 -28.796875 "/></g></g><g style="fill:rgb(0%,63.529968%,65.879822%);fill-opacity:1;"><g transform="translate(315.221267, 206.699986)"><path style="stroke:none;" d="M 12.53125 0.90625 C 8.519531 0.90625 5.894531 -0.179688 4.65625 -2.359375 C 3.90625 -3.671875 3.53125 -5.40625 3.53125 -7.5625 C 3.53125 -9.71875 3.679688 -11.882812 3.984375 -14.0625 C 4.804688 -19.988281 6.097656 -23.925781 7.859375 -25.875 C 9.628906 -27.820312 12.390625 -28.796875 16.140625 -28.796875 C 19.890625 -28.796875 22.425781 -28.175781 23.75 -26.9375 C 25.082031 -25.707031 25.75 -23.3125 25.75 -19.75 C 25.75 -17.382812 25.28125 -15.640625 24.34375 -14.515625 C 23.21875 -13.203125 19.054688 -12.546875 11.859375 -12.546875 C 11.554688 -9.992188 11.40625 -8.296875 11.40625 -7.453125 C 11.40625 -6.609375 11.425781 -6.070312 11.46875 -5.84375 C 11.65625 -5.019531 12.273438 -4.609375 13.328125 -4.609375 C 18.160156 -4.609375 21.550781 -4.851562 23.5 -5.34375 C 23.539062 -5.34375 23.625 -5.359375 23.75 -5.390625 C 23.882812 -5.429688 24.007812 -5.394531 24.125 -5.28125 C 24.425781 -4.945312 24.460938 -4.238281 24.234375 -3.15625 C 24.046875 -1.195312 23.613281 -0.144531 22.9375 0 C 21.289062 0.601562 17.820312 0.90625 12.53125 0.90625 Z M 18.390625 -20.03125 C 18.390625 -22.382812 18.179688 -23.5625 17.765625 -23.5625 C 16.492188 -23.5625 15.414062 -23.375 14.53125 -23 C 13.65625 -22.625 13.175781 -22.101562 13.09375 -21.4375 L 12.484375 -17.046875 C 15.066406 -17.046875 16.695312 -17.222656 17.375 -17.578125 C 18.050781 -17.929688 18.390625 -18.75 18.390625 -20.03125 Z M 18.390625 -20.03125 "/></g></g><g style="fill:rgb(0%,63.529968%,65.879822%);fill-opacity:1;"><g transform="translate(340.753423, 206.699986)"><path style="stroke:none;" d="M 4 -23.40625 C 3.507812 -23.40625 3.265625 -23.550781 3.265625 -23.84375 L 3.265625 -24.40625 C 3.484375 -25.988281 3.894531 -26.851562 4.5 -27 L 9.109375 -27.90625 L 13.15625 -34.25 C 13.644531 -34.8125 14.546875 -35.09375 15.859375 -35.09375 C 16.304688 -35.09375 16.554688 -34.285156 16.609375 -32.671875 C 16.671875 -31.066406 16.722656 -29.476562 16.765625 -27.90625 L 22.15625 -27.90625 C 22.613281 -27.90625 22.84375 -27.472656 22.84375 -26.609375 C 22.84375 -26.347656 22.820312 -26.03125 22.78125 -25.65625 C 22.550781 -24.15625 22.140625 -23.40625 21.546875 -23.40625 L 16.09375 -23.40625 L 13.5625 -5.515625 L 13.5625 0.90625 C 13.5625 1.09375 13.519531 1.238281 13.4375 1.34375 C 13.25 1.644531 12.300781 1.796875 10.59375 1.796875 C 8.894531 1.796875 7.953125 1.5 7.765625 0.90625 L 7.765625 0.78125 L 5.84375 -4.5625 L 8.5 -23.40625 Z M 4 -23.40625 "/></g></g></g></svg>